# xmcd
#
# Track frame offsets:
#	150
#	21764
#	40163
#	56845
#	82367
#	110163
#	135427
#	156671
#	181046
#	202643
#	229217
#	242360
#
# Disc length: 3491 seconds
#
# Revision: 3
# Processed by: cddbd v1.5.2PL0 Copyright (c) Steve Scherf et al.
# Submitted via: EasyCDDAExtractor 15.3.0.1
#
DISCID=9d0da10c
DTITLE=Palmy - The Acoustic Album
DYEAR=2007
DGENRE=Acoustic
TTITLE0=อยู่ต่อได้หรือเปล่า
TTITLE1=ทบทวน
TTITLE2=Tick Tock
TTITLE3=พูดไม่เต็มปาก
TTITLE4=พรุ่งนี้อาจไม่มีฉัน
TTITLE5=ความเจ็บปวด
TTITLE6=กลัว
TTITLE7=กุญแจที่หายไป
TTITLE8=Stay
TTITLE9=ร้องไห้ง่ายง่ายกับเรื่องเดิมเดิม
TTITLE10=Ooh!
TTITLE11=อยากร้องดังดัง (Encore Version)
EXTD=Palmy and T-Bone
EXTT0=
EXTT1=
EXTT2=
EXTT3=
EXTT4=
EXTT5=
EXTT6=
EXTT7=
EXTT8=
EXTT9=
EXTT10=
EXTT11=
PLAYORDER=
